<?xml version="1.0" encoding="UTF-8"?>
<svg version="1.1" xmlns="http://www.w3.org/2000/svg" width="2000" height="2000">
<path d="M0 0 C0.84224121 0.22026855 1.68448242 0.44053711 2.55224609 0.66748047 C40.88405692 10.88682287 75.52081481 31.5878537 104 59 C104.57927246 59.55204102 105.15854492 60.10408203 105.75537109 60.67285156 C114.33639276 68.88119297 121.95138834 77.4477685 129 87 C129.42764648 87.57218262 129.85529297 88.14436523 130.29589844 88.73388672 C136.80930319 97.47348544 142.54776459 106.56869049 148 116 C148.55349121 116.95519531 149.10698242 117.91039062 149.67724609 118.89453125 C153.52980572 125.5475541 157.36713706 132.20926295 161.20019531 138.87353516 C163.70947506 143.23243863 166.22841348 147.58570748 168.75 151.9375 C169.19029541 152.69748291 169.63059082 153.45746582 170.08422852 154.24047852 C170.95699604 155.74692795 171.82979828 157.25335727 172.70263672 158.75976562 C174.01246203 161.02151892 175.3208797 163.28408102 176.62890625 165.546875 C181.86399824 174.6016523 187.11352598 183.64802694 192.375 192.6875 C193.24958862 194.19316528 193.24958862 194.19316528 194.1418457 195.72924805 C194.700896 196.68871338 195.25994629 197.64817871 195.8359375 198.63671875 C196.63596191 200.012229 196.63596191 200.012229 197.45214844 201.41552734 C199.24206589 204.40418132 201.15283994 207.29790353 203.13916016 210.15942383 C204.29768323 212.63648153 204.30598061 214.28673238 204 217 C202.93701172 219.38989258 202.93701172 219.38989258 201.4296875 221.89453125 C200.87039551 222.8371582 200.31110352 223.77978516 199.73486328 224.75097656 C198.81423096 226.26643066 198.81423096 226.26643066 197.875 227.8125 C196.57789059 229.99074584 195.28102204 232.16913513 193.984375 234.34765625 C192.98567383 236.01272217 192.98567383 236.01272217 191.96679688 237.71142578 C188.98185679 242.70238196 186.05193326 247.7248765 183.125 252.75 C182.55305908 253.72960693 181.98111816 254.70921387 181.3918457 255.71850586 C176.21900173 264.59063889 171.12422381 273.50687226 166.03613281 282.42773438 C156.20604603 299.66126726 146.27572765 316.83602043 136.2668457 333.96630859 C130.1005487 344.52647084 123.99494961 355.12142546 117.89111328 365.71777344 C114.76319852 371.14659942 111.63141552 376.57319281 108.5 382 C107.24998121 384.16665583 105.99998122 386.3333225 104.75 388.5 C97.25 401.5 89.75 414.5 82.25 427.5 C81.32078735 429.11068359 81.32078735 429.11068359 80.37280273 430.75390625 C79.13023981 432.9076172 77.88756511 435.06126367 76.64477539 437.21484375 C73.74685377 442.23684262 70.84996651 447.25942807 67.95724487 452.28442383 C66.94052802 454.05045522 65.92344342 455.81627431 64.90625 457.58203125 C63.63599127 459.78734155 62.36640982 461.99304216 61.09765625 464.19921875 C59.40510247 467.13673987 57.7046101 470.06946132 56 473 C55.44070801 473.96808594 54.88141602 474.93617188 54.30517578 475.93359375 C53.77263184 476.84238281 53.24008789 477.75117187 52.69140625 478.6875 C52.22033447 479.49574219 51.7492627 480.30398438 51.26391602 481.13671875 C50 483 50 483 48 484 C47.59386475 483.2879541 47.18772949 482.5759082 46.76928711 481.84228516 C37.50970237 465.61238092 28.21224977 449.40519854 18.86328125 433.2265625 C16.9796495 429.96475993 15.09877679 426.70138156 13.21875 423.4375 C7.17252688 412.94261084 1.11036519 402.45769461 -5 392 C-11.74701194 380.45270484 -18.43339318 368.87097973 -25.10888672 357.28222656 C-28.85438435 350.78152037 -32.60497265 344.28374968 -36.35498047 337.78564453 C-39.25294889 332.76346298 -42.14994287 327.74072934 -45.04275513 322.71557617 C-46.05947198 320.94954478 -47.07655658 319.18372569 -48.09375 317.41796875 C-49.36400873 315.21265845 -50.63359018 313.00695784 -51.90234375 310.80078125 C-55.53640788 304.49366105 -59.23098259 298.22744663 -63 292 C-65.79563775 294.49384792 -67.43253404 297.25215081 -69.265625 300.50390625 C-69.90056885 301.62361816 -70.5355127 302.74333008 -71.18969727 303.89697266 C-71.52494415 304.4934259 -71.86019104 305.08987915 -72.20559692 305.70440674 C-73.62992079 308.23841553 -75.06489886 310.76633761 -76.4990387 313.2947998 C-77.24053345 314.60249586 -77.98144351 315.91052361 -78.7217865 317.21887207 C-82.30012854 323.54129565 -85.92620131 329.83574652 -89.5625 336.125 C-90.80339067 338.27343447 -92.04427608 340.42187197 -93.28515625 342.5703125 C-93.89762207 343.63024414 -94.51008789 344.69017578 -95.14111328 345.78222656 C-98.26324605 351.18670645 -101.38141204 356.59347412 -104.5 362 C-105.74998122 364.1666775 -106.99998121 366.33334417 -108.25 368.5 C-108.86875 369.5725 -109.4875 370.645 -110.125 371.75 C-122 392.33333333 -133.875 412.91666667 -145.75 433.5 C-146.36883057 434.57266113 -146.98766113 435.64532227 -147.62524414 436.75048828 C-148.87435518 438.91557071 -150.12354129 441.08060982 -151.37280273 443.24560547 C-154.51202309 448.68615706 -157.64990563 454.12747216 -160.78515625 459.5703125 C-166.80747329 470.02206199 -172.84669337 480.46299548 -178.9375 490.875 C-184.35958699 500.14563931 -189.70324012 509.45936699 -195.02023315 518.79046631 C-200.19378787 527.86778636 -205.43142154 536.90571533 -210.7109375 545.921875 C-215.19166265 553.58573974 -219.60494224 561.28685835 -224 569 C-229.53985933 578.72124506 -235.13374932 588.40894868 -240.78344727 598.06689453 C-246.93766742 608.59084625 -253.02369996 619.15380137 -259.10888672 629.71777344 C-262.23680148 635.14659942 -265.36858448 640.57319281 -268.5 646 C-269.75001879 648.16665583 -271.00001878 650.3333225 -272.25 652.5 C-429.75 925.5 -429.75 925.5 -431.6262207 928.75170898 C-432.87262167 930.912408 -434.11855483 933.07337694 -435.36401367 935.23461914 C-438.54024253 940.74492958 -441.72516064 946.2499103 -444.92578125 951.74609375 C-448.64905412 958.14605018 -452.33789216 964.56486332 -456 971 C-456.49935059 971.87237305 -456.99870117 972.74474609 -457.51318359 973.64355469 C-476.29662446 1006.7186021 -480.96614414 1042.21165264 -470.9375 1079.0390625 C-464.95862323 1098.42889202 -455.00415147 1115.5176507 -442 1131 C-441.06220703 1132.14082031 -441.06220703 1132.14082031 -440.10546875 1133.3046875 C-432.40194645 1142.37319237 -422.92073334 1149.50697818 -413 1156 C-411.68322266 1156.86238281 -411.68322266 1156.86238281 -410.33984375 1157.7421875 C-381.91522251 1175.33651976 -344.95117663 1180.29533392 -312.5925293 1172.71533203 C-299.19793917 1169.38522549 -287.12079275 1164.54828803 -275 1158 C-274.09636719 1157.51789063 -273.19273437 1157.03578125 -272.26171875 1156.5390625 C-249.47216575 1143.63368551 -234.15918264 1123.91919923 -221.44873047 1101.54394531 C-219.83324666 1098.70718405 -218.20106852 1095.88043986 -216.56640625 1093.0546875 C-213.35645582 1087.50510205 -210.1548534 1081.9507578 -206.95556641 1076.39501953 C-203.80667946 1070.9283002 -200.65316736 1065.46425113 -197.5 1060 C-196.2499765 1057.83334689 -194.99997653 1055.66668021 -193.75 1053.5 C-161.25 997.16666667 -128.75 940.83333333 -96.25 884.5 C-95.63116943 883.42733887 -95.01233887 882.35467773 -94.37475586 881.24951172 C-93.12564482 879.08442929 -91.87645871 876.91939018 -90.62719727 874.75439453 C-87.48797691 869.31384294 -84.35009437 863.87252784 -81.21484375 858.4296875 C-75.19252671 847.97793801 -69.15330663 837.53700452 -63.0625 827.125 C-57.64041301 817.85436069 -52.29675988 808.54063301 -46.97976685 799.20953369 C-41.80621213 790.13221364 -36.56857846 781.09428467 -31.2890625 772.078125 C-26.80833854 764.4142623 -22.39493248 756.71321165 -18 749 C-12.48736165 739.32518781 -6.91575433 729.68717863 -1.2890625 720.078125 C3.19166265 712.41426026 7.60494224 704.71314165 12 697 C17.53985933 687.27875494 23.13374932 677.59105132 28.78344727 667.93310547 C34.93766742 657.40915375 41.02369996 646.84619863 47.10888672 636.28222656 C50.23680148 630.85340058 53.36858448 625.42680719 56.5 620 C57.75001879 617.83334417 59.00001878 615.6666775 60.25 613.5 C77.75 583.16666667 95.25 552.83333333 112.75 522.5 C113.36883057 521.42733887 113.98766113 520.35467773 114.62524414 519.24951172 C115.87435518 517.08442929 117.12354129 514.91939018 118.37280273 512.75439453 C121.51202309 507.31384294 124.64990563 501.87252784 127.78515625 496.4296875 C134.40222892 484.9455118 141.04633977 473.47803106 147.73291016 462.03417969 C153.89919054 451.47379718 160.0049595 440.87873234 166.10888672 430.28222656 C169.23680148 424.85340058 172.36858448 419.42680719 175.5 414 C176.75001879 411.83334417 178.00001878 409.6666775 179.25 407.5 C186.75 394.5 194.25 381.5 201.75 368.5 C202.36883057 367.42733887 202.98766113 366.35467773 203.62524414 365.24951172 C204.87435518 363.08442929 206.12354129 360.91939018 207.37280273 358.75439453 C210.51202309 353.31384294 213.64990563 347.87252784 216.78515625 342.4296875 C222.83055204 331.93767828 228.89121011 321.45524681 235 311 C245.46194717 293.09088937 255.80265727 275.11300851 266.0770874 257.0958252 C271.23397645 248.05564477 276.45533409 239.05492376 281.71337891 230.07324219 C285.82505867 223.03958598 289.8872273 215.97854749 293.92401123 208.90170288 C294.93397787 207.13117448 295.94467174 205.36106313 296.95556641 203.59106445 C300.986244 196.53288626 300.986244 196.53288626 305.00732422 189.46923828 C324.94577414 154.39998829 324.94577414 154.39998829 339 140 C339.77730469 139.14921875 340.55460937 138.2984375 341.35546875 137.421875 C362.01680053 115.41080797 394.86494276 101.19280038 424.87695312 99.87353516 C464.85264973 98.90915526 499.04833874 110.03107679 529 137 C529.98033203 137.87205078 529.98033203 137.87205078 530.98046875 138.76171875 C552.01055844 158.59294347 564.00527182 185.95050956 569 214 C569.19207031 215.05832031 569.38414063 216.11664062 569.58203125 217.20703125 C574.1661286 258.80664365 559.38037319 290.65424034 538.98779297 325.58886719 C535.80633648 331.04837469 532.65422297 336.52472941 529.5 342 C528.25015042 344.16675344 527.00015017 346.33341998 525.75 348.5 C525.13125 349.5725 524.5125 350.645 523.875 351.75 C472 441.66666667 420.125 531.58333333 368.25 621.5 C367.63116943 622.57266113 367.01233887 623.64532227 366.37475586 624.75048828 C365.12564482 626.91557071 363.87645871 629.08060982 362.62719727 631.24560547 C359.48797691 636.68615706 356.35009437 642.12747216 353.21484375 647.5703125 C346.59777108 659.0544882 339.95366023 670.52196894 333.26708984 681.96582031 C327.10080946 692.52620282 320.9950405 703.12126766 314.89111328 713.71777344 C311.76319852 719.14659942 308.63141552 724.57319281 305.5 730 C304.24998121 732.16665583 302.99998122 734.3333225 301.75 736.5 C279.25 775.5 256.75 814.5 234.25 853.5 C233.63116943 854.57266113 233.01233887 855.64532227 232.37475586 856.75048828 C231.12564482 858.91557071 229.87645871 861.08060982 228.62719727 863.24560547 C225.48797691 868.68615706 222.35009437 874.12747216 219.21484375 879.5703125 C212.59777108 891.0544882 205.95366023 902.52196894 199.26708984 913.96582031 C193.10080946 924.52620282 186.9950405 935.12126766 180.89111328 945.71777344 C177.76319852 951.14659942 174.63141552 956.57319281 171.5 962 C170.24998121 964.16665583 168.99998122 966.3333225 167.75 968.5 C150.25 998.83333333 132.75 1029.16666667 115.25 1059.5 C114.63133057 1060.57241943 114.01266113 1061.64483887 113.37524414 1062.74975586 C112.12463697 1064.91735556 110.87382301 1067.08483596 109.62280273 1069.25219727 C106.50538962 1074.65363154 103.39154597 1080.05706138 100.28515625 1085.46484375 C93.89169622 1096.58583862 87.43756973 1107.6653355 80.875 1118.6875 C75.39125717 1127.89981872 70.03204673 1137.17010224 64.78588867 1146.51953125 C60.98656124 1153.28220547 57.10888873 1159.99493049 53.1875 1166.6875 C48.06779271 1175.42621201 43.01397528 1184.20039142 38 1193 C30.75063203 1205.71617205 23.4139365 1218.37898382 16 1231 C15.32186929 1232.15669677 14.64381176 1233.31343644 13.96582031 1234.47021484 C12.201128 1237.47997398 10.43203974 1240.48711446 8.66015625 1243.49264526 C7.66460332 1245.1827666 6.672082 1246.87467257 5.6796875 1248.56665039 C-3.72967382 1264.48747444 -14.26766816 1279.70410746 -26 1294 C-26.69609375 1294.87011719 -27.3921875 1295.74023438 -28.109375 1296.63671875 C-32.93540531 1302.63502947 -37.98230738 1308.35037504 -43.2265625 1313.98046875 C-45.31815977 1316.2288597 -47.32304144 1318.53867197 -49.3203125 1320.87109375 C-53.05025825 1325.15003804 -57.08846298 1329.02034146 -61.25 1332.875 C-61.99580322 1333.57044922 -62.74160645 1334.26589844 -63.51000977 1334.98242188 C-65.66933053 1336.99265502 -67.83405777 1338.99690665 -70 1341 C-70.55864746 1341.51981445 -71.11729492 1342.03962891 -71.69287109 1342.57519531 C-77.90687215 1348.35612984 -84.27996342 1353.81704291 -91 1359 C-91.52029785 1359.40879395 -92.0405957 1359.81758789 -92.57666016 1360.23876953 C-110.19016728 1374.05218916 -129.14873727 1386.46686975 -148.94824219 1396.91015625 C-151.00200338 1398.00106415 -153.03696932 1399.12155798 -155.0703125 1400.25 C-242.6251354 1448.41506525 -347.61752564 1456.62210401 -455 1431 C-507.29975229 1415.75692427 -556.60172527 1390.55724579 -598.32763672 1355.39599609 C-600.78634707 1353.34360109 -603.30514946 1351.36747968 -605.8125 1349.375 C-610.67681155 1345.40174852 -615.05718514 1341.04231492 -619.44140625 1336.55859375 C-621.6005733 1334.3994267 -623.79115317 1332.40162852 -626.125 1330.4375 C-629.96078311 1327.1541319 -633.2586989 1323.51090502 -636.58984375 1319.72265625 C-638.68626053 1317.35441882 -640.8274278 1315.03792956 -642.99121094 1312.73144531 C-648.94952097 1306.35264763 -654.37130656 1299.64416482 -659.67675781 1292.71728516 C-660.93451406 1291.08498673 -662.20951214 1289.46822194 -663.4921875 1287.85546875 C-708.95328481 1230.1213276 -734.7718951 1160.17576997 -745 1088 C-745.14840332 1086.95585938 -745.29680664 1085.91171875 -745.44970703 1084.8359375 C-749.64275742 1053.12285336 -748.81057972 1018.59547092 -744 987 C-743.83371094 985.87964355 -743.66742187 984.75928711 -743.49609375 983.60498047 C-734.47115219 924.5166825 -712.15694909 871.20559654 -681.79296875 820.03759766 C-678.67586378 814.75668534 -675.62119101 809.43988761 -672.5625 804.125 C-671.30342894 801.94007909 -670.04431425 799.75518331 -668.78515625 797.5703125 C-667.84760498 795.94270996 -667.84760498 795.94270996 -666.89111328 794.28222656 C-663.13971976 787.77128743 -659.38309006 781.26336806 -655.62744141 774.75488281 C-652.48817754 769.31414664 -649.35018503 763.87268523 -646.21484375 758.4296875 C-640.19252671 747.97793801 -634.15330663 737.53700452 -628.0625 727.125 C-622.98724877 718.44737759 -617.97741233 709.73394432 -613 701 C-607.4599827 691.27884383 -601.86625191 681.59105342 -596.21655273 671.93310547 C-590.06233258 661.40915375 -583.97630004 650.84619863 -577.89111328 640.28222656 C-574.76319852 634.85340058 -571.63141552 629.42680719 -568.5 624 C-567.24998121 621.83334417 -565.99998122 619.6666775 -564.75 617.5 C-552.25 595.83333333 -539.75 574.16666667 -527.25 552.5 C-526.63116943 551.42733887 -526.01233887 550.35467773 -525.37475586 549.24951172 C-524.12564482 547.08442929 -522.87645871 544.91939018 -521.62719727 542.75439453 C-518.48797691 537.31384294 -515.35009437 531.87252784 -512.21484375 526.4296875 C-505.59777108 514.9455118 -498.95366023 503.47803106 -492.26708984 492.03417969 C-486.10080946 481.47379718 -479.9950405 470.87873234 -473.89111328 460.28222656 C-470.76319852 454.85340058 -467.63141552 449.42680719 -464.5 444 C-463.24998121 441.83334417 -461.99998122 439.6666775 -460.75 437.5 C-453.25 424.5 -445.75 411.5 -438.25 398.5 C-437.63116943 397.42733887 -437.01233887 396.35467773 -436.37475586 395.24951172 C-435.12564482 393.08442929 -433.87645871 390.91939018 -432.62719727 388.75439453 C-429.48797691 383.31384294 -426.35009437 377.87252784 -423.21484375 372.4296875 C-416.59777108 360.9455118 -409.95366023 349.47803106 -403.26708984 338.03417969 C-397.10080946 327.47379718 -390.9950405 316.87873234 -384.89111328 306.28222656 C-381.76319852 300.85340058 -378.63141552 295.42680719 -375.5 290 C-374.24998121 287.83334417 -372.99998122 285.6666775 -371.75 283.5 C-369.25 279.16666667 -366.75 274.83333333 -364.25 270.5 C-363.63116943 269.42733887 -363.01233887 268.35467773 -362.37475586 267.24951172 C-361.12564482 265.08442929 -359.87645871 262.91939018 -358.62719727 260.75439453 C-355.48797691 255.31384294 -352.35009437 249.87252784 -349.21484375 244.4296875 C-342.59777108 232.9455118 -335.95366023 221.47803106 -329.26708984 210.03417969 C-323.10080946 199.47379718 -316.9950405 188.87873234 -310.89111328 178.28222656 C-307.14053601 171.77270411 -303.38498011 165.2660522 -299.62963867 158.75927734 C-296.47614838 153.29465337 -293.3253296 147.82852098 -290.1796875 142.359375 C-287.05896055 136.93495946 -283.92962578 131.51559948 -280.79345703 126.10009766 C-279.61747843 124.06734836 -278.44388981 122.03321414 -277.27294922 119.99755859 C-264.98730998 98.6589679 -251.57891202 79.3293445 -234 62 C-233.14792969 61.1440625 -232.29585937 60.288125 -231.41796875 59.40625 C-171.40013452 -0.3207062 -81.23854598 -21.50566965 0 0 Z " fill="#5D16EB" transform="translate(965,418)"/>
<path d="M0 0 C3.17440814 2.92629249 5.2534503 5.84345489 7.36328125 9.6015625 C7.99500244 10.71805176 8.62672363 11.83454102 9.27758789 12.98486328 C9.95590002 14.19823766 10.63420384 15.41161669 11.3125 16.625 C12.02454459 17.88698773 12.73736621 19.14853733 13.45092773 20.40966797 C14.55093263 22.35403665 15.65044428 24.29866659 16.74757385 26.24465942 C20.30991356 32.56278998 23.93059037 38.84662734 27.5625 45.125 C28.80215921 47.2707895 30.04174245 49.41662289 31.28125 51.5625 C32.19970703 53.15191406 32.19970703 53.15191406 33.13671875 54.7734375 C35.0203505 58.03524007 36.90122321 61.29861844 38.78125 64.5625 C44.80439739 75.01712951 50.84522445 85.46048442 56.9375 95.875 C62.35921178 105.14499777 67.70204915 114.45831752 73.01922607 123.78845215 C78.22045129 132.9128284 83.48027878 142.00132774 88.78344727 151.06689453 C94.93766742 161.59084625 101.02369996 172.15380137 107.10888672 182.71777344 C110.23680148 188.14659942 113.36858448 193.57319281 116.5 199 C117.75001879 201.16665583 119.00001878 203.3333225 120.25 205.5 C120.86875 206.5725 121.4875 207.645 122.125 208.75 C157.75 270.5 157.75 270.5 159.62524414 273.75048828 C160.87435518 275.91557071 162.12354129 278.08060982 163.37280273 280.24560547 C166.51202309 285.68615706 169.64990563 291.12747216 172.78515625 296.5703125 C178.80747329 307.02206199 184.84669337 317.46299548 190.9375 327.875 C196.35921178 337.14499777 201.70204915 346.45831752 207.01922607 355.78845215 C212.22045129 364.9128284 217.48027878 374.00132774 222.78344727 383.06689453 C228.93766742 393.59084625 235.02369996 404.15380137 241.10888672 414.71777344 C243.6131413 419.0641714 246.11993352 423.40910273 248.62695312 427.75390625 C250.50290515 431.00503479 252.37840529 434.25642374 254.25390625 437.5078125 C256.73930902 441.81601651 259.22641977 446.12322789 261.71484375 450.4296875 C268.50961564 462.19206573 275.27593156 473.97015507 282.00897217 485.76794434 C288.68285605 497.46067617 295.40522282 509.12511332 302.14111328 520.78222656 C305.26324605 526.18670645 308.38141204 531.59347412 311.5 537 C312.74998122 539.1666775 313.99998121 541.33334417 315.25 543.5 C317.75 547.83333333 320.25 552.16666667 322.75 556.5 C323.3692334 557.57330566 323.9884668 558.64661133 324.62646484 559.75244141 C325.87169484 561.91090498 327.11681272 564.06943323 328.36181641 566.22802734 C331.55886337 571.77074741 334.75807595 577.31220008 337.9609375 582.8515625 C341.10448266 588.28861454 344.23878706 593.73091829 347.36962891 599.17529297 C348.8131808 601.67632552 350.26905162 604.16954119 351.73046875 606.66015625 C369.06197793 636.40287769 375.75580626 673.85024658 367.2578125 707.60546875 C366.84899382 709.07326387 366.42980301 710.53821184 366 712 C365.78569336 712.7317041 365.57138672 713.4634082 365.35058594 714.21728516 C358.96458113 735.23904624 348.16120705 753.15324272 333 769 C331.93458984 770.17755859 331.93458984 770.17755859 330.84765625 771.37890625 C319.17041478 783.81466939 304.60878835 793.27375471 289 800 C288.35885254 800.27924316 287.71770508 800.55848633 287.05712891 800.84619141 C273.21495794 806.75371426 258.07296022 810.47572312 243 811 C241.92492188 811.0515625 240.84984375 811.103125 239.7421875 811.15625 C218.48883761 811.70709276 197.20765064 807.07824284 178 798 C177.37158203 797.70673828 176.74316406 797.41347656 176.09570312 797.11132812 C148.91088795 784.23158252 129.84455394 762.72112507 115 737 C114.46632813 736.07912598 113.93265625 735.15825195 113.3828125 734.20947266 C109.56627142 727.62275884 105.76639685 721.02655171 101.97167969 714.42724609 C98.81974768 708.94844203 95.65959203 703.47438887 92.5 698 C91.2499577 695.83335774 89.99995776 693.66669103 88.75 691.5 C88.13125 690.4275 87.5125 689.355 86.875 688.25 C21.25 574.5 21.25 574.5 19.37475586 571.24951172 C18.12564482 569.08442929 16.87645871 566.91939018 15.62719727 564.75439453 C12.48797691 559.31384294 9.35009437 553.87252784 6.21484375 548.4296875 C-0.40141117 536.94693103 -7.04390011 525.48039099 -13.73071289 514.03857422 C-18.65133658 505.61289607 -23.52724657 497.16185401 -28.39672852 488.70654297 C-32.5512582 481.4974806 -36.73555379 474.30650808 -40.9375 467.125 C-46.35968383 457.85441812 -51.70324071 448.54063198 -57.02023315 439.20953369 C-61.63484029 431.11292157 -66.29084886 423.04211199 -71 415 C-76.4035646 405.77199471 -81.72652361 396.5000533 -87.02050781 387.20898438 C-91.63502804 379.11255867 -96.29095255 371.04193491 -101 363 C-106.05630923 354.36502443 -111.04607122 345.69393681 -116 337 C-120.97727742 328.26596351 -125.98848227 319.5533498 -131.0625 310.875 C-131.62026123 309.91867676 -132.17802246 308.96235352 -132.75268555 307.97705078 C-135.52554841 303.22436781 -138.30699453 298.4770914 -141.1075592 293.74069214 C-142.50934987 291.36574109 -143.90342078 288.98631406 -145.29611206 286.60601807 C-146.28790416 284.91688936 -147.28946387 283.23350784 -148.29125977 281.55029297 C-149.1931604 280.00559326 -149.1931604 280.00559326 -150.11328125 278.4296875 C-150.64735596 277.52460449 -151.18143066 276.61952148 -151.73168945 275.68701172 C-153.16062692 272.65969973 -153.82836097 270.34818911 -154 267 C-152.97460938 264.34472656 -152.97460938 264.34472656 -151.34375 261.640625 C-150.43979492 260.11115234 -150.43979492 260.11115234 -149.51757812 258.55078125 C-148.85177734 257.46152344 -148.18597656 256.37226562 -147.5 255.25 C-146.81007643 254.0935035 -146.12195523 252.93593007 -145.43554688 251.77734375 C-144.00825144 249.37141642 -142.57331453 246.97030723 -141.1328125 244.57226562 C-137.848717 239.09061481 -134.68046179 233.54217412 -131.5 228 C-130.25054576 225.83301856 -129.00054389 223.66635279 -127.75 221.5 C-127.13125 220.4275 -126.5125 219.355 -125.875 218.25 C-30.25 52.5 -30.25 52.5 -28.37231445 49.24536133 C-27.13124746 47.09416776 -25.89019907 44.94296345 -24.64916992 42.79174805 C-21.73501656 37.74037001 -18.82068182 32.6890969 -15.90567017 27.63821411 C-14.87326522 25.84933082 -13.84092044 24.06041283 -12.80859375 22.27148438 C-11.51314052 20.02662364 -10.2175743 17.7818281 -8.921875 15.53710938 C-5.93692086 10.36428226 -2.95754683 5.18854991 0 0 Z " fill="#5D16EB" transform="translate(1411,1053)"/>
<path d="M0 0 C33.97947517 -0.97337038 64.82468239 11.91002628 90.0625 34.1640625 C90.67222656 34.70160156 91.28195312 35.23914063 91.91015625 35.79296875 C109.4367156 52.32511338 122.87344912 75.99212444 129.0625 99.1640625 C129.35664795 100.23793213 129.35664795 100.23793213 129.65673828 101.33349609 C132.74692615 113.13078731 133.45384746 124.83792884 133.5 136.9765625 C133.5061734 137.66167908 133.5123468 138.34679565 133.51870728 139.05267334 C133.72335266 174.34369067 118.1467088 204.22977606 94.1875 229.3515625 C65.18003293 257.35877209 26.87025978 268.7354336 -12.63671875 268.375 C-46.27550173 267.67661696 -75.83225409 252.50419174 -99.25683594 228.92675781 C-107.67055506 220.10237488 -114.02536937 209.76599637 -119.9375 199.1640625 C-120.5665625 198.04386719 -121.195625 196.92367187 -121.84375 195.76953125 C-131.00429163 178.51316007 -136.04028152 158.65817314 -136.9375 139.1640625 C-136.99035156 138.08511719 -137.04320312 137.00617188 -137.09765625 135.89453125 C-137.51239115 119.25103952 -134.84297854 102.72766482 -128.9375 87.1640625 C-128.69016113 86.50599609 -128.44282227 85.84792969 -128.18798828 85.16992188 C-115.76184193 52.87598221 -89.16739948 27.42064201 -57.87109375 13.28515625 C-39.05343466 5.11768624 -20.46391973 1.14293169 0 0 Z " fill="#5D16EB" transform="translate(1576.9375,214.8359375)"/>
</svg>
